# xmcd CD database file
#
# Track frame offsets:
#	150
#	11920
#	28402
#	44087
#	66122
#	77232
#	93512
#	108172
#	120667
#	134905
#	150235
#	167905
#	182525
#
# Disc length: 2597 seconds
#
# Revision: 0
# Processed by: cddbd v1.4PL0 Copyright (c) Steve Scherf et al.
# Submitted via: Feurio! 1.65 - http://www.feurio.com
#
DISCID=b30a230d
DTITLE=Cold Blue Steel - Headed Out Of Memphis
DYEAR=1996
DGENRE=Bluesrock
TTITLE0=Monkey's Uncle
TTITLE1=Headed Out Of Memphis
TTITLE2=Hollywood Blonde
TTITLE3=Just Got In From Dallas
TTITLE4=Wideglide
TTITLE5=No More Doggin
TTITLE6=I Think I'm Going Crazy
TTITLE7=Big Time Operator
TTITLE8=You And My Money
TTITLE9=Shufflin Little Lady
TTITLE10=Month Of Sundays
TTITLE11=Drive-In
TTITLE12=We're Outta Here
EXTD=1996, Icehouse Records
EXTT0=
EXTT1=
EXTT2=
EXTT3=
EXTT4=
EXTT5=
EXTT6=
EXTT7=
EXTT8=
EXTT9=
EXTT10=
EXTT11=
EXTT12=
PLAYORDER=
